<?xml version="1.0"?>
<svg xmlns="http://www.w3.org/2000/svg" viewBox="0 0 50 50" enable-background="new 0 0 50 50">
    <path style="text-indent:0;text-align:start;line-height:normal;text-transform:none;block-progression:tb;-inkscape-font-specification:Bitstream Vera Sans" d="M 21.5 0 C 18.195127 0 15.197197 0.63802532 12.9375 1.71875 C 10.677803 2.7994747 9 4.4162114 9 6.5 C 9 6.5323347 8.9991961 6.5616405 9 6.59375 A 1.0001 1.0001 0 0 0 9 6.8125 L 9 41.40625 C 9 44.141033 10.784883 46.449222 13.28125 47.96875 A 1.0001 1.0001 0 0 0 14.78125 47.3125 L 15.6875 42.9375 L 16.71875 48.875 A 1.0001 1.0001 0 0 0 17.46875 49.65625 C 18.782884 49.984784 20.148718 50.09375 21.5 50.09375 C 24.877083 50.09375 27.945823 49.207348 30.21875 47.6875 C 32.491677 46.167652 34 43.951599 34 41.40625 L 34 32 C 34 30.459259 34.61819 28.91306 35.71875 27.8125 L 39.4375 24.78125 A 1.0001 1.0001 0 0 0 39.46875 24.75 C 39.46875 24.75 40.2798 24.004835 40.65625 22.75 C 41.0327 21.495165 40.96249 19.662485 39.625 17.65625 A 1.0001 1.0001 0 0 0 38.8125 17.1875 L 36 17.1875 A 1.0001 1.0001 0 0 0 35.9375 17.1875 C 34.912254 17.251578 34 16.422917 34 15.40625 L 34 6.8125 A 1.0001 1.0001 0 0 0 34 6.6875 C 34.003199 6.6237324 34 6.5646693 34 6.5 C 34 4.4162114 32.322197 2.7994747 30.0625 1.71875 C 27.802803 0.63802532 24.804873 0 21.5 0 z M 21.5 2 C 24.546402 2 27.285016 2.5901162 29.1875 3.5 C 31.089984 4.4098838 32 5.5462225 32 6.5 C 32 7.4537775 31.089984 8.5901162 29.1875 9.5 C 28.474069 9.8412065 27.639481 10.137985 26.71875 10.375 A 1.0001 1.0001 0 0 0 26.4375 10.40625 C 20.339971 11.374112 16.845249 9.929986 15.71875 8.53125 C 15.155501 7.831882 15.11211 7.2547242 15.375 6.65625 C 15.63789 6.0577758 16.333876 5.3835702 17.6875 4.96875 A 1.0051139 1.0051139 0 1 0 17.28125 3 A 1.0001 1.0001 0 0 0 17.09375 3.03125 C 15.347374 3.5664298 14.09336 4.5640992 13.53125 5.84375 C 12.998575 7.0563921 13.212001 8.4600374 14.03125 9.59375 C 13.95938 9.5613075 13.882155 9.5333131 13.8125 9.5 C 11.910016 8.5901162 11 7.4537775 11 6.5 C 11 5.5462225 11.910016 4.4098838 13.8125 3.5 C 15.714984 2.5901162 18.453598 2 21.5 2 z M 24 4 C 22.76032 4 21.624588 4.2345812 20.71875 4.6875 C 19.812912 5.1404188 19 5.9072751 19 7 C 19 8.0927249 19.812912 8.8595812 20.71875 9.3125 C 21.624588 9.7654188 22.76032 10 24 10 C 25.23968 10 26.375412 9.7654188 27.28125 9.3125 C 28.187088 8.8595812 29 8.0927249 29 7 C 29 5.9072751 28.187088 5.1404188 27.28125 4.6875 C 26.375412 4.2345812 25.23968 4 24 4 z M 24 6 C 24.969459 6 25.833122 6.1978112 26.375 6.46875 C 26.916878 6.7396888 27 6.9881554 27 7 C 27 7.0118446 26.916878 7.2603112 26.375 7.53125 C 25.833122 7.8021888 24.969459 8 24 8 C 23.030541 8 22.166878 7.8021888 21.625 7.53125 C 21.083122 7.2603112 21 7.0118446 21 7 C 21 6.9881554 21.083122 6.7396888 21.625 6.46875 C 22.166878 6.1978112 23.030541 6 24 6 z M 11 10.09375 C 11.56498 10.542621 12.2202 10.938193 12.9375 11.28125 C 15.197197 12.361975 18.195127 13 21.5 13 C 24.804873 13 27.802803 12.361975 30.0625 11.28125 C 30.7798 10.938193 31.43502 10.542621 32 10.09375 L 32 15.40625 C 32 17.56817 33.852305 19.285585 36 19.1875 C 36.02127 19.186528 36.04117 19.1888 36.0625 19.1875 L 38.15625 19.1875 C 38.897942 20.511062 38.949494 21.491269 38.75 22.15625 C 38.534017 22.876194 38.181415 23.195492 38.15625 23.21875 C 38.155368 23.219565 38.125 23.25 38.125 23.25 L 34.375 26.3125 A 1.0001 1.0001 0 0 0 34.28125 26.40625 C 32.78181 27.90569 32 29.940741 32 32 L 32 41.40625 C 32 43.160901 30.970823 44.776098 29.09375 46.03125 C 27.216677 47.286402 24.522917 48.09375 21.5 48.09375 C 20.470235 48.09375 19.494773 47.957026 18.5625 47.78125 L 16.78125 37.4375 A 1.0001 1.0001 0 0 0 14.8125 37.40625 L 13.15625 45.21875 C 11.879941 44.099071 11 42.83312 11 41.40625 L 11 10.09375 z M 15.84375 19 A 1.0001 1.0001 0 0 0 15 20.125 C 15.1266 21.095603 14.95606 21.834067 14.8125 22.65625 C 14.668944 23.478433 14.560893 24.512812 15.125 25.5 A 1.0077822 1.0077822 0 0 0 16.875 24.5 C 16.639107 24.087188 16.681056 23.752817 16.8125 23 C 16.943944 22.247183 17.1734 21.204397 17 19.875 A 1.0001 1.0001 0 0 0 15.84375 19 z M 25.875 28.96875 A 1.0001 1.0001 0 0 0 25.75 29 A 1.0001 1.0001 0 0 0 25 30.125 C 25.179564 31.6064 24.94352 32.690103 24.75 33.8125 C 24.556483 34.934897 24.424844 36.195738 25.125 37.46875 A 1.0001 1.0001 0 1 0 26.875 36.53125 C 26.475156 35.804262 26.537267 35.208853 26.71875 34.15625 C 26.900233 33.103647 27.220436 31.6936 27 29.875 A 1.0001 1.0001 0 0 0 25.875 28.96875 z" overflow="visible" enable-background="accumulate" font-family="Bitstream Vera Sans"/>
</svg>
