<!DOCTYPE svg PUBLIC "-//W3C//DTD SVG 20010904//EN" "http://www.w3.org/TR/2001/REC-SVG-20010904/DTD/svg10.dtd">
<svg version="1.0" xmlns="http://www.w3.org/2000/svg" width="332px" height="162px" viewBox="0 0 3320 1620" preserveAspectRatio="xMidYMid meet">
<g id="layer101" fill="#000000" stroke="none">
 <path d="M1022 1198 c-29 -14 -38 -52 -23 -94 8 -21 10 -59 5 -106 -6 -70 -5 -74 20 -97 23 -22 36 -25 109 -26 45 -1 88 2 95 8 19 15 14 48 -8 54 -11 3 -20 14 -20 25 0 36 -29 77 -63 87 -31 9 -31 9 -5 10 72 3 111 46 89 99 -7 16 -24 34 -37 41 -31 14 -132 13 -162 -1z m122 -34 c23 -9 20 -44 -3 -44 -10 0 -32 -3 -50 -6 -24 -5 -32 -3 -37 11 -13 32 44 56 90 39z m-30 -160 c22 -8 22 -72 0 -81 -37 -14 -70 41 -44 73 14 16 21 17 44 8z"/>
 <path d="M2740 1103 c0 -23 -3 -48 -6 -57 -5 -12 0 -16 19 -16 18 0 27 7 31 25 8 31 45 50 80 41 44 -11 30 -34 -41 -68 -67 -32 -68 -34 -71 -75 -3 -36 1 -44 25 -60 17 -11 46 -18 78 -18 27 0 56 -4 63 -9 18 -11 18 -10 26 57 6 56 6 57 -19 57 -14 0 -25 -6 -25 -13 0 -39 -81 -63 -88 -26 -2 11 16 23 60 40 70 27 95 58 84 102 -10 41 -42 55 -133 59 l-83 3 0 -42z"/>
 <path d="M100 1120 c0 -11 7 -20 15 -20 13 0 15 -24 15 -155 0 -131 -2 -155 -15 -155 -9 0 -15 -9 -15 -25 0 -24 3 -25 60 -25 57 0 60 1 60 25 0 16 -6 25 -15 25 -12 0 -15 13 -15 60 l0 60 50 0 50 0 0 -60 c0 -47 -3 -60 -15 -60 -9 0 -15 -9 -15 -25 0 -24 3 -25 60 -25 57 0 60 1 60 25 0 16 -6 25 -15 25 -13 0 -15 24 -15 155 0 131 2 155 15 155 8 0 15 9 15 20 0 18 -7 20 -60 20 -53 0 -60 -2 -60 -20 0 -11 7 -20 15 -20 12 0 15 -14 15 -70 l0 -70 -50 0 -50 0 0 70 c0 56 3 70 15 70 8 0 15 9 15 20 0 18 -7 20 -60 20 -53 0 -60 -2 -60 -20z"/>
 <path d="M422 1124 c-16 -11 -22 -25 -22 -55 0 -55 31 -84 108 -100 54 -11 60 -15 51 -31 -6 -12 -21 -18 -44 -18 -27 0 -37 5 -47 28 -19 39 -52 37 -56 -5 -4 -45 32 -67 110 -68 53 0 62 3 84 28 20 23 24 39 24 93 0 57 2 64 20 64 22 0 25 16 11 53 -9 24 -13 25 -113 26 -79 0 -110 -3 -126 -15z m117 -35 c27 -9 31 -16 31 -46 0 -35 0 -36 -36 -30 -59 10 -90 47 -62 75 15 15 26 15 67 1z"/>
 <path d="M690 1120 c0 -11 7 -20 15 -20 12 0 15 -17 15 -90 0 -73 -3 -90 -15 -90 -9 0 -15 -9 -15 -25 0 -19 5 -25 23 -25 12 0 32 -3 45 -6 16 -5 22 -2 22 10 0 14 4 15 21 5 12 -6 36 -8 56 -4 46 8 63 49 63 150 0 60 3 75 15 75 8 0 15 9 15 20 0 18 -7 20 -60 20 -53 0 -60 -2 -60 -20 0 -12 7 -20 16 -20 14 0 16 -12 13 -80 -5 -93 -16 -111 -53 -86 -24 15 -26 22 -26 91 0 60 3 75 15 75 8 0 15 9 15 20 0 18 -7 20 -60 20 -53 0 -60 -2 -60 -20z"/>
 <path d="M1290 963 c0 -145 -2 -175 -15 -179 -22 -9 -19 -44 3 -44 10 0 27 -7 38 -15 10 -8 23 -15 28 -15 4 0 5 41 1 91 l-7 91 23 -8 c40 -15 96 -9 119 11 50 45 50 167 0 217 -27 26 -33 28 -109 26 l-81 -1 0 -174z m142 120 c20 -18 26 -110 8 -144 -14 -25 -45 -24 -70 1 -27 27 -29 134 -2 149 25 15 43 13 64 -6z"/>
 <path d="M1604 1106 c-31 -31 -34 -39 -34 -95 0 -53 4 -64 31 -95 59 -67 153 -54 189 26 24 52 25 77 5 124 -22 53 -52 73 -108 74 -43 0 -54 -5 -83 -34z m116 -26 c14 -14 20 -33 20 -68 0 -82 -46 -117 -90 -70 -42 45 -17 158 35 158 8 0 24 -9 35 -20z"/>
 <path d="M1872 1124 c-16 -11 -22 -25 -22 -55 0 -55 31 -84 108 -100 54 -11 60 -15 51 -31 -6 -12 -21 -18 -44 -18 -27 0 -37 5 -47 28 -19 39 -52 37 -56 -5 -4 -45 32 -67 110 -68 53 0 62 3 84 28 20 23 24 39 24 93 0 57 2 64 20 64 22 0 25 16 11 53 -9 24 -13 25 -113 26 -79 0 -110 -3 -126 -15z m117 -35 c27 -9 31 -16 31 -46 0 -35 0 -36 -36 -30 -59 10 -90 47 -62 75 15 15 26 15 67 1z"/>
 <path d="M2130 1120 c0 -16 7 -20 35 -20 l35 0 0 -90 0 -90 -30 0 c-25 0 -30 -4 -30 -25 0 -21 5 -25 29 -25 16 0 43 -3 60 -6 27 -6 31 -4 31 15 0 21 1 21 30 6 37 -19 60 -19 88 1 27 18 26 51 -1 68 -15 9 -22 7 -37 -12 l-18 -22 -31 31 c-28 27 -31 37 -31 90 0 59 0 59 30 59 23 0 30 4 30 20 0 19 -7 20 -95 20 -88 0 -95 -1 -95 -20z"/>
 <path d="M2474 1117 c-24 -21 -28 -33 -32 -89 -3 -47 0 -74 12 -96 22 -42 68 -66 112 -57 33 6 34 5 34 -29 0 -44 -9 -66 -26 -66 -8 0 -14 -9 -14 -20 0 -14 7 -20 23 -20 13 0 32 -7 43 -15 10 -8 22 -15 27 -15 4 0 7 86 7 190 0 162 2 190 15 190 8 0 15 8 15 19 0 22 -30 29 -127 30 -51 1 -66 -2 -89 -22z m105 -43 c39 -49 21 -154 -26 -154 -30 0 -53 39 -53 90 0 37 5 55 20 70 26 26 34 25 59 -6z"/>
 <path d="M1580 553 c0 -23 -3 -48 -6 -57 -5 -12 0 -16 19 -16 18 0 27 7 31 25 8 31 45 50 80 41 44 -11 30 -34 -41 -68 -67 -32 -68 -34 -71 -75 -3 -36 1 -44 25 -60 17 -11 46 -18 78 -18 27 0 56 -4 63 -9 18 -11 18 -10 26 57 6 56 6 57 -19 57 -14 0 -25 -6 -25 -13 0 -39 -81 -63 -88 -26 -2 11 16 23 60 40 70 27 95 58 84 102 -10 41 -42 55 -133 59 l-83 3 0 -42z"/>
 <path d="M100 570 c0 -13 7 -20 20 -20 19 0 20 -7 20 -155 0 -148 -1 -155 -20 -155 -15 0 -20 -7 -20 -25 0 -25 1 -25 86 -25 104 0 145 16 169 67 24 49 14 100 -25 136 -24 22 -40 27 -80 27 l-50 0 0 65 c0 51 3 65 15 65 8 0 15 9 15 20 0 18 -7 20 -65 20 -58 0 -65 -2 -65 -20z m178 -206 c16 -11 22 -25 22 -54 0 -48 -21 -70 -66 -70 l-34 0 0 70 c0 70 0 70 28 70 15 0 38 -7 50 -16z"/>
 <path d="M390 570 c0 -16 7 -20 35 -20 l35 0 0 -90 0 -90 -30 0 c-25 0 -30 -4 -30 -25 0 -21 5 -25 29 -25 16 0 43 -3 60 -6 27 -6 31 -4 31 15 0 21 1 21 30 6 37 -19 60 -19 88 1 27 18 26 51 -1 68 -15 9 -22 7 -37 -12 l-18 -22 -31 31 c-28 27 -31 37 -31 90 0 59 0 59 30 59 23 0 30 4 30 20 0 19 -7 20 -95 20 -88 0 -95 -1 -95 -20z"/>
 <path d="M734 556 c-31 -31 -34 -39 -34 -95 0 -55 3 -65 33 -96 40 -44 89 -55 139 -31 37 18 53 42 63 100 l7 36 -91 0 c-83 0 -91 2 -91 19 0 21 44 61 67 61 8 0 28 -14 43 -30 18 -19 34 -28 44 -24 20 8 20 8 1 44 -20 38 -43 50 -100 50 -40 0 -52 -5 -81 -34z m139 -143 c-15 -44 -61 -55 -93 -23 -32 32 -24 40 40 40 52 0 59 -2 53 -17z"/>
 <path d="M1041 576 c-36 -20 -50 -54 -51 -119 0 -54 3 -62 33 -92 56 -56 139 -58 180 -3 25 33 15 68 -18 68 -18 0 -24 -6 -27 -27 -2 -22 -9 -29 -30 -31 -69 -8 -106 101 -53 153 33 34 52 31 91 -10 31 -34 64 -39 64 -11 0 14 -29 57 -50 73 -20 16 -109 16 -139 -1z"/>
 <path d="M1300 570 c0 -16 7 -20 35 -20 l35 0 0 -90 0 -90 -35 0 c-31 0 -35 -3 -35 -25 0 -22 4 -25 34 -25 18 0 48 -3 65 -6 l31 -6 0 121 0 121 30 0 c23 0 30 4 30 20 0 19 -7 20 -95 20 -88 0 -95 -1 -95 -20z"/>
 <path d="M1880 570 c0 -16 7 -20 35 -20 l35 0 0 -90 0 -90 -35 0 c-31 0 -35 -3 -35 -25 0 -22 4 -25 34 -25 18 0 48 -3 65 -6 l31 -6 0 121 0 121 30 0 c23 0 30 4 30 20 0 19 -7 20 -95 20 -88 0 -95 -1 -95 -20z"/>
 <path d="M2184 556 c-31 -31 -34 -39 -34 -95 0 -53 4 -64 31 -95 59 -67 153 -54 189 26 24 52 25 77 5 124 -22 53 -52 73 -108 74 -43 0 -54 -5 -83 -34z m116 -26 c14 -14 20 -33 20 -68 0 -82 -46 -117 -90 -70 -42 45 -17 158 35 158 8 0 24 -9 35 -20z"/>
 <path d="M2430 570 c0 -11 7 -20 15 -20 12 0 15 -17 15 -90 0 -73 -3 -90 -15 -90 -9 0 -15 -9 -15 -25 0 -19 5 -25 23 -25 12 0 32 -3 45 -6 16 -5 22 -2 22 10 0 14 4 15 21 5 12 -6 36 -8 56 -4 46 8 63 49 63 150 0 60 3 75 15 75 8 0 15 9 15 20 0 18 -7 20 -60 20 -53 0 -60 -2 -60 -20 0 -12 7 -20 16 -20 14 0 16 -12 13 -80 -5 -93 -16 -111 -53 -86 -24 15 -26 22 -26 91 0 60 3 75 15 75 8 0 15 9 15 20 0 18 -7 20 -60 20 -53 0 -60 -2 -60 -20z"/>
 <path d="M1372 268 c-16 -16 -15 -53 3 -68 18 -15 52 -4 60 20 13 43 -33 78 -63 48z"/>
 <path d="M1952 268 c-16 -16 -15 -53 3 -68 18 -15 52 -4 60 20 13 43 -33 78 -63 48z"/>
 </g>

</svg>